<?xml version="1.0" encoding="UTF-8" standalone="no"?>
<!-- Created with Inkscape (http://www.inkscape.org/) -->

<svg
   width="1024mm"
   height="1024mm"
   viewBox="0 0 1024 1024"
   version="1.1"
   id="svg1"
   xml:space="preserve"
   sodipodi:docname="qinghua-logo.svg"
   inkscape:version="1.4.2 (ebf0e940, 2025-05-08)"
   inkscape:export-filename="logo/qinghua-logo1024.png"
   inkscape:export-xdpi="96"
   inkscape:export-ydpi="96"
   xmlns:inkscape="http://www.inkscape.org/namespaces/inkscape"
   xmlns:sodipodi="http://sodipodi.sourceforge.net/DTD/sodipodi-0.dtd"
   xmlns:xlink="http://www.w3.org/1999/xlink"
   xmlns="http://www.w3.org/2000/svg"
   xmlns:svg="http://www.w3.org/2000/svg"><sodipodi:namedview
     id="namedview1"
     pagecolor="#ffffff"
     bordercolor="#000000"
     borderopacity="0.25"
     inkscape:showpageshadow="2"
     inkscape:pageopacity="0.0"
     inkscape:pagecheckerboard="0"
     inkscape:deskcolor="#d1d1d1"
     inkscape:document-units="mm"
     showguides="true"
     inkscape:zoom="0.13102506"
     inkscape:cx="1350.8866"
     inkscape:cy="1999.6175"
     inkscape:window-width="2192"
     inkscape:window-height="1353"
     inkscape:window-x="8"
     inkscape:window-y="33"
     inkscape:window-maximized="0"
     inkscape:current-layer="g36" /><defs
     id="defs1"><linearGradient
       id="linearGradient36"
       inkscape:collect="always"><stop
         style="stop-color:#00aaff;stop-opacity:1;"
         offset="0"
         id="stop35" /><stop
         style="stop-color:#00ffff;stop-opacity:1;"
         offset="1"
         id="stop36" /></linearGradient><linearGradient
       id="linearGradient34"
       inkscape:collect="always"><stop
         style="stop-color:#00aaff;stop-opacity:1;"
         offset="0"
         id="stop33" /><stop
         style="stop-color:#00ffff;stop-opacity:1;"
         offset="1"
         id="stop34" /></linearGradient><linearGradient
       id="linearGradient20"
       inkscape:collect="always"><stop
         style="stop-color:#00aaff;stop-opacity:0.97027028;"
         offset="0"
         id="stop20" /><stop
         style="stop-color:#00ffff;stop-opacity:0.99319726;"
         offset="1"
         id="stop21" /></linearGradient><linearGradient
       id="linearGradient17"
       inkscape:collect="always"><stop
         style="stop-color:#00aaff;stop-opacity:1;"
         offset="0"
         id="stop17" /><stop
         style="stop-color:#00ffff;stop-opacity:0.88435376;"
         offset="1"
         id="stop18" /></linearGradient><linearGradient
       inkscape:collect="always"
       xlink:href="#linearGradient17"
       id="linearGradient18"
       x1="511.99997"
       y1="941.33276"
       x2="511.99994"
       y2="93.809418"
       gradientUnits="userSpaceOnUse" /><linearGradient
       inkscape:collect="always"
       xlink:href="#linearGradient20"
       id="linearGradient21"
       x1="511.99997"
       y1="935.76111"
       x2="511.99994"
       y2="88.237755"
       gradientUnits="userSpaceOnUse" /><filter
       inkscape:collect="always"
       style="color-interpolation-filters:sRGB"
       id="filter29"
       x="-0.016534351"
       y="-0.01868792"
       width="1.0330687"
       height="1.0373758"><feGaussianBlur
         inkscape:collect="always"
         stdDeviation="6.7858742"
         id="feGaussianBlur29" /></filter><linearGradient
       inkscape:collect="always"
       xlink:href="#linearGradient34"
       id="linearGradient29"
       gradientUnits="userSpaceOnUse"
       x1="511.99997"
       y1="941.33276"
       x2="511.99994"
       y2="93.809418" /><linearGradient
       inkscape:collect="always"
       xlink:href="#linearGradient36"
       id="linearGradient30"
       gradientUnits="userSpaceOnUse"
       x1="511.99997"
       y1="941.33276"
       x2="511.99994"
       y2="93.809418" /></defs><g
     inkscape:label="Layer 1"
     inkscape:groupmode="layer"
     id="layer1"><g
       id="g37"
       transform="matrix(0.99111368,0,0,0.99111368,4.5498002,4.5497965)"><path
         id="path23"
         style="opacity:1;fill:#1a1a1a;fill-opacity:0.548649;stroke:#007a80;stroke-width:0.5;stroke-linecap:round;stroke-linejoin:round;stroke-dasharray:none;stroke-opacity:0.283784;filter:url(#filter29)"
         d="m 511.38172,69.582171 a 18.668968,18.668968 0 0 0 -4.86224,0.8124 18.668968,18.668968 0 0 0 -9.07025,6.1505 c 0,0 -49.07577,61.062099 -100.40059,147.334099 -51.32482,86.272 -105.67197,197.8162 -115.58777,303.1717 -6.21014,65.9824 12.43256,128.8663 40.86934,184.366 -111.28384,-3.2962 -175.89695,-65.9931 -216.48446,-132.9324 -45.221589,-74.5821 -56.656496,-152.8553 -56.656496,-152.8553 a 18.668968,18.668968 0 0 0 -37.132618,1.9492 c 0,0 -5.154101,130.1061 54.755831,261.2947 59.909933,131.1885 188.730123,264.3253 445.097903,265.5548 a 18.668968,18.668968 0 0 0 0.17931,0 c 256.36777,-1.2295 385.18796,-134.3663 445.0979,-265.5548 59.90992,-131.1886 54.75582,-261.2947 54.75582,-261.2947 a 18.668968,18.668968 0 0 0 -37.13261,-1.9492 c 0,0 -11.43491,78.2732 -56.65649,152.8553 -40.58752,66.9393 -105.20054,129.6362 -216.48446,132.9324 28.43678,-55.4997 47.07948,-118.3836 40.86934,-184.366 -9.9158,-105.3555 -64.26293,-216.8997 -115.58777,-303.1717 C 575.62658,137.60717 526.55082,76.545071 526.55082,76.545071 a 18.668968,18.668968 0 0 0 -15.1691,-6.9629 z m 0.61805,49.496199 c 17.58266,23.422 49.05295,67.05 82.86729,123.8886 14.17693,23.83 28.49027,49.6578 41.92406,76.5999 1.11405,17.7739 4.44999,100.5412 -22.71128,185.2983 -18.081,56.4218 -48.4308,112.6863 -102.08007,152.338 -53.64927,-39.6517 -83.99908,-95.9162 -102.08008,-152.338 -27.16126,-84.7569 -23.82481,-167.5244 -22.71076,-185.2983 13.43379,-26.9421 27.74713,-52.7699 41.92406,-76.5999 33.81433,-56.8386 65.28412,-100.4666 82.86678,-123.8886 z m -160.47238,281.2232 c 3.04996,33.9429 9.57738,74.5723 22.83995,115.9582 18.3845,57.369 51.09302,116.8907 105.11296,161.4336 -31.52519,16.4524 -69.44898,27.9412 -115.31595,32.2761 -30.6525,-54.9301 -51.40463,-117.0418 -45.53366,-179.4206 3.93694,-41.83 16.16957,-86.3486 32.8967,-130.2473 z m 320.94527,0 c 16.72712,43.8987 28.95976,88.4173 32.8967,130.2473 5.87097,62.3788 -14.88117,124.4905 -45.53366,179.4206 -45.86697,-4.3349 -83.79077,-15.8237 -115.31596,-32.2761 54.01994,-44.5429 86.72846,-104.0646 105.11297,-161.4336 13.26257,-41.3859 19.78999,-82.0153 22.83995,-115.9582 z m -160.47289,300.7764 c 34.66353,21.3098 76.37108,36.9637 126.39125,43.9606 -9.0169,13.5655 -18.46664,26.5255 -28.04325,38.7543 -39.18617,50.0382 -79.26614,86.9036 -98.348,103.4262 -19.08186,-16.5226 -59.16132,-53.388 -98.34749,-103.4262 -9.57661,-12.2288 -19.02635,-25.1888 -28.04325,-38.7543 50.02017,-6.9969 91.72718,-22.6508 126.39074,-43.9606 z" /><g
         id="g36"><path
           id="path15"
           style="opacity:1;fill:url(#linearGradient21);fill-opacity:0.97027;stroke:#008012;stroke-width:0.5;stroke-linecap:round;stroke-linejoin:round;stroke-dasharray:none;stroke-opacity:0.32162163"
           d="m 30.710487,428.2739 c 0,0 -18.877049,505.0884 481.289493,507.4872 C 1012.1666,933.3623 993.29,428.2739 993.29,428.2739 c 0,0 -45.71449,318.682 -323.1834,301.4786 -63.12512,106.7325 -158.10662,181.8602 -158.10662,181.8602 0,0 -94.981,-75.1277 -158.10612,-181.8602 C 76.424951,746.9559 30.710487,428.2739 30.710487,428.2739 Z" /><g
           id="g14"
           transform="translate(9.2664548e-6,-5.5716596)"
           style="font-variation-settings:normal;opacity:1;vector-effect:none;fill:none;fill-opacity:0.530035;stroke:url(#linearGradient18);stroke-width:37.3342;stroke-linecap:butt;stroke-linejoin:round;stroke-miterlimit:4;stroke-dasharray:none;stroke-dashoffset:0;stroke-opacity:1;-inkscape-stroke:none;stop-color:#000000;stop-opacity:1"><path
             style="font-variation-settings:normal;vector-effect:none;fill:none;fill-opacity:0.530035;stroke:url(#linearGradient29);stroke-width:37.3342;stroke-linecap:butt;stroke-linejoin:round;stroke-miterlimit:4;stroke-dasharray:none;stroke-dashoffset:0;stroke-opacity:1;-inkscape-stroke:none;stop-color:#000000;stop-opacity:1"
             d="M 300.04573,534.3709 C 318.89326,334.11574 511.99995,93.809416 511.99995,93.809416 c 0,0 193.10674,240.306324 211.95427,440.561484 18.84765,200.25527 -211.95424,382.81346 -211.95424,382.81346 0,0 -230.8019,-182.55819 -211.95425,-382.81346 z"
             id="path9"
             sodipodi:nodetypes="scscs" /><path
             style="font-variation-settings:normal;vector-effect:none;fill:none;fill-opacity:0.530035;stroke:url(#linearGradient30);stroke-width:37.3342;stroke-linecap:butt;stroke-linejoin:round;stroke-miterlimit:4;stroke-dasharray:none;stroke-dashoffset:0;stroke-opacity:1;-inkscape-stroke:none;stop-color:#000000;stop-opacity:1"
             d="m 368.86758,319.94999 c 0,0 -34.9813,385.03962 291.15526,414.35343 286.56215,25.75675 333.26705,-300.45758 333.26705,-300.45758 0,0 18.87661,505.08823 -481.28991,507.48695 C 11.833445,938.93407 30.710092,433.84584 30.710092,433.84584 c 0,0 46.704897,326.21433 333.267018,300.45758 326.13656,-29.31381 291.15528,-414.35343 291.15528,-414.35343"
             id="path11"
             sodipodi:nodetypes="cscccsc" /></g></g></g></g></svg>
