<?xml version="1.0" encoding="UTF-8" standalone="no"?>
<!-- Created with Inkscape (http://www.inkscape.org/) -->

<svg
   width="1024mm"
   height="1024mm"
   viewBox="0 0 1024 1024"
   version="1.1"
   id="svg1"
   xml:space="preserve"
   sodipodi:docname="qinghua-logo.svg"
   inkscape:version="1.4.2 (ebf0e940, 2025-05-08)"
   xmlns:inkscape="http://www.inkscape.org/namespaces/inkscape"
   xmlns:sodipodi="http://sodipodi.sourceforge.net/DTD/sodipodi-0.dtd"
   xmlns="http://www.w3.org/2000/svg"
   xmlns:svg="http://www.w3.org/2000/svg"><sodipodi:namedview
     id="namedview1"
     pagecolor="#ffffff"
     bordercolor="#000000"
     borderopacity="0.25"
     inkscape:showpageshadow="2"
     inkscape:pageopacity="0.0"
     inkscape:pagecheckerboard="0"
     inkscape:deskcolor="#d1d1d1"
     inkscape:document-units="mm"
     showguides="true"
     inkscape:zoom="0.13102506"
     inkscape:cx="1556.9541"
     inkscape:cy="1526.4255"
     inkscape:window-width="2192"
     inkscape:window-height="1353"
     inkscape:window-x="8"
     inkscape:window-y="33"
     inkscape:window-maximized="0"
     inkscape:current-layer="layer1" /><defs
     id="defs1" /><g
     inkscape:label="Layer 1"
     inkscape:groupmode="layer"
     id="layer1"><path
       style="fill:none;fill-opacity:0.530035;stroke:#ff0000;stroke-width:37.3342;stroke-dasharray:none;stroke-linejoin:round"
       d="M 300.04573,534.3709 C 318.89326,334.11574 511.99995,93.809416 511.99995,93.809416 c 0,0 193.10674,240.306324 211.95427,440.561484 18.84765,200.25527 -211.95424,382.81346 -211.95424,382.81346 0,0 -230.8019,-182.55819 -211.95425,-382.81346 z"
       id="path9"
       sodipodi:nodetypes="scscs" /><path
       style="fill:none;fill-opacity:0.530035;stroke:#ff0000;stroke-width:37.3342;stroke-dasharray:none;stroke-linecap:round;stroke-linejoin:round"
       d="m 368.86758,319.94999 c 0,0 -34.9813,385.03962 291.15526,414.35343 286.56215,25.75675 333.26705,-300.45758 333.26705,-300.45758 0,0 18.87661,505.08823 -481.28991,507.48695 C 11.833445,938.93407 30.710092,433.84584 30.710092,433.84584 c 0,0 46.704897,326.21433 333.267018,300.45758 326.13656,-29.31381 291.15528,-414.35343 291.15528,-414.35343"
       id="path11"
       sodipodi:nodetypes="cscccsc" /></g></svg>
